<svg xmlns="http://www.w3.org/2000/svg" width="14.838" height="14.758" viewBox="0 0 14.838 14.758">
  <g id="RComSante-time-icon" transform="translate(-39.499 -204.744)">
    <path id="Tracé_188" data-name="Tracé 188" d="M48.789,205.591a.557.557,0,0,0-.28,1.077,6.277,6.277,0,0,1,2.519,1.318l-.078.078a.477.477,0,1,0,.675.675l.077-.077a6.3,6.3,0,0,1,1.5,3.632H53.1a.477.477,0,0,0,0,.954H53.2a6.277,6.277,0,0,1-1.505,3.628l-.074-.074a.477.477,0,0,0-.675.675l.074.074a6.277,6.277,0,0,1-3.628,1.505v-.107a.477.477,0,0,0-.954,0v.107a6.277,6.277,0,0,1-3.628-1.505l.074-.074a.477.477,0,0,0-.675-.675l-.074.074a6.278,6.278,0,0,1-1.506-3.628h.107a.477.477,0,0,0,0-.954h-.108a6.3,6.3,0,0,1,1.5-3.633l.078.078a.477.477,0,1,0,.675-.675l-.079-.079a6.282,6.282,0,0,1,2.543-1.324.557.557,0,0,0-.276-1.079,7.419,7.419,0,1,0,3.715.007Z" transform="translate(0 -0.689)" fill="#33bd94"/>
    <path id="Tracé_189" data-name="Tracé 189" d="M58.4,212.083a.477.477,0,0,0,.477.477h3.86a.477.477,0,0,0,.477-.477v-6.862a.477.477,0,1,0-.954,0v6.385H58.876A.477.477,0,0,0,58.4,212.083Z" transform="translate(-15.818 0)" fill="#33bd94"/>
  </g>
</svg>
