<svg xmlns="http://www.w3.org/2000/svg" width="14.838" height="15.397" viewBox="0 0 14.838 15.397">
  <g id="RComSante-calendar-icon" transform="translate(-374.525 -371)">
    <path id="Tracé_185" data-name="Tracé 185" d="M388.236,372.16h-1.077V371.7a.7.7,0,0,0-1.409,0v.456H384.9V371.7a.7.7,0,1,0-1.409,0v.456h-.846V371.7a.7.7,0,1,0-1.409,0v.456h-.845V371.7a.7.7,0,0,0-1.409,0v.456h-.845V371.7a.7.7,0,0,0-1.409,0v.456h-1.078a1.127,1.127,0,0,0-1.127,1.127V385.27a1.127,1.127,0,0,0,1.127,1.127h12.583a1.128,1.128,0,0,0,1.127-1.127V373.288A1.128,1.128,0,0,0,388.236,372.16Zm.443,13.109a.443.443,0,0,1-.443.443H375.652a.443.443,0,0,1-.443-.443v-9.749h13.469Z" transform="translate(0 0)" fill="#09c"/>
    <rect id="Rectangle_25" data-name="Rectangle 25" width="1.791" height="1.595" rx="0.797" transform="translate(378.597 376.492)" fill="#09c"/>
    <rect id="Rectangle_26" data-name="Rectangle 26" width="1.791" height="1.595" rx="0.797" transform="translate(381.049 376.492)" fill="#09c"/>
    <rect id="Rectangle_27" data-name="Rectangle 27" width="1.791" height="1.595" rx="0.797" transform="translate(383.501 376.492)" fill="#09c"/>
    <rect id="Rectangle_28" data-name="Rectangle 28" width="1.791" height="1.595" rx="0.797" transform="translate(385.953 376.492)" fill="#09c"/>
    <rect id="Rectangle_29" data-name="Rectangle 29" width="1.791" height="1.595" rx="0.797" transform="translate(376.144 378.742)" fill="#09c"/>
    <rect id="Rectangle_30" data-name="Rectangle 30" width="1.791" height="1.595" rx="0.797" transform="translate(378.597 378.742)" fill="#09c"/>
    <rect id="Rectangle_31" data-name="Rectangle 31" width="1.791" height="1.595" rx="0.797" transform="translate(381.049 378.742)" fill="#09c"/>
    <rect id="Rectangle_32" data-name="Rectangle 32" width="1.791" height="1.595" rx="0.797" transform="translate(383.501 378.742)" fill="#09c"/>
    <rect id="Rectangle_33" data-name="Rectangle 33" width="1.791" height="1.595" rx="0.797" transform="translate(385.953 378.742)" fill="#09c"/>
    <rect id="Rectangle_34" data-name="Rectangle 34" width="1.791" height="1.595" rx="0.797" transform="translate(376.144 380.995)" fill="#09c"/>
    <rect id="Rectangle_35" data-name="Rectangle 35" width="1.791" height="1.595" rx="0.797" transform="translate(378.597 380.995)" fill="#09c"/>
    <rect id="Rectangle_36" data-name="Rectangle 36" width="1.791" height="1.595" rx="0.797" transform="translate(381.049 380.995)" fill="#09c"/>
    <rect id="Rectangle_37" data-name="Rectangle 37" width="1.791" height="1.595" rx="0.797" transform="translate(383.501 380.995)" fill="#09c"/>
    <rect id="Rectangle_38" data-name="Rectangle 38" width="1.791" height="1.595" rx="0.797" transform="translate(385.953 380.995)" fill="#09c"/>
    <rect id="Rectangle_39" data-name="Rectangle 39" width="1.791" height="1.595" rx="0.797" transform="translate(376.144 383.276)" fill="#09c"/>
    <rect id="Rectangle_40" data-name="Rectangle 40" width="1.791" height="1.595" rx="0.797" transform="translate(378.597 383.276)" fill="#09c"/>
    <rect id="Rectangle_41" data-name="Rectangle 41" width="1.791" height="1.595" rx="0.797" transform="translate(381.049 383.276)" fill="#09c"/>
    <rect id="Rectangle_42" data-name="Rectangle 42" width="1.791" height="1.595" rx="0.797" transform="translate(383.501 383.276)" fill="#09c"/>
  </g>
</svg>
