<svg xmlns="http://www.w3.org/2000/svg" width="16.335" height="13.067" viewBox="0 0 16.335 13.067">
  <path id="RComSante-twitter-icon" d="M97.756,377.357a6.689,6.689,0,0,1-1.922.519,3.315,3.315,0,0,0,1.472-1.825,6.663,6.663,0,0,1-2.13.8,3.363,3.363,0,0,0-2.444-1.041,3.323,3.323,0,0,0-3.349,3.3,3.367,3.367,0,0,0,.084.752,9.558,9.558,0,0,1-6.908-3.446,3.243,3.243,0,0,0-.454,1.66,3.285,3.285,0,0,0,1.491,2.743,3.37,3.37,0,0,1-1.517-.412v.042a3.269,3.269,0,0,0,.227,1.2,3.35,3.35,0,0,0,2.461,2.039,3.436,3.436,0,0,1-.885.117,3.347,3.347,0,0,1-.629-.062,3.349,3.349,0,0,0,3.131,2.292,6.789,6.789,0,0,1-4.162,1.414,7.259,7.259,0,0,1-.8-.045,9.63,9.63,0,0,0,5.138,1.481,9.33,9.33,0,0,0,9.307-7.394,8.968,8.968,0,0,0,.227-1.994c0-.143,0-.285-.007-.425a6.8,6.8,0,0,0,1.669-1.708Z" transform="translate(-81.421 -375.811)" fill="#e34234" fill-rule="evenodd"/>
</svg>
