<svg xmlns="http://www.w3.org/2000/svg" width="18" height="18" viewBox="0 0 18 18">
  <g id="RComSante-infobulle" transform="translate(-601.882 -745.882)">
    <circle id="Ellipse_85" data-name="Ellipse 85" cx="9" cy="9" r="9" transform="translate(601.882 745.882)" fill="#33bd94"/>
    <path id="Tracé_449" data-name="Tracé 449" d="M1.924,1.742A4.367,4.367,0,0,1,1.835.818,2.371,2.371,0,0,1,2.244-.656a3.1,3.1,0,0,1,.791-.764,12.353,12.353,0,0,1,1.093-.622Q6.418-3.161,6.418-4.867a2.618,2.618,0,0,0-.755-1.919,2.616,2.616,0,0,0-1.945-.764,3.03,3.03,0,0,0-1.11.2,2.345,2.345,0,0,0-.844.533.98.98,0,0,0-.32.684q0,.462.568.551L1.675-4.6A1.267,1.267,0,0,1,.76-5.062,1.533,1.533,0,0,1,.4-6.092,1.917,1.917,0,0,1,.849-7.327a3.1,3.1,0,0,1,1.226-.888,4.245,4.245,0,0,1,1.679-.329,3.9,3.9,0,0,1,1.919.471A3.422,3.422,0,0,1,7-6.776a3.6,3.6,0,0,1,.48,1.839,3.383,3.383,0,0,1-.551,1.981,5.869,5.869,0,0,1-1.9,1.572l-.462.266a9.291,9.291,0,0,0-.835.506,4.152,4.152,0,0,0-.48.417,1.607,1.607,0,0,0-.409,1.1,3.187,3.187,0,0,0,.071.657Zm.764,2.594a.758.758,0,0,1-.746-.746.737.737,0,0,1,.222-.542.717.717,0,0,1,.524-.222.758.758,0,0,1,.764.764.717.717,0,0,1-.222.524A.737.737,0,0,1,2.688,4.335Z" transform="translate(607.526 757.505)" fill="#fff"/>
  </g>
</svg>
