<svg id="RComSante-search-icon" xmlns="http://www.w3.org/2000/svg" width="26.617" height="26.617" viewBox="0 0 26.617 26.617">
  <g id="Groupe_96" data-name="Groupe 96" transform="translate(0 0)">
    <path id="Tracé_87" data-name="Tracé 87" d="M247.964,160.912l2.149,2.149.867-.867a10.151,10.151,0,1,0-2.149-2.149Zm1.083-6.887a7.954,7.954,0,1,1,2.33,5.624A7.9,7.9,0,0,1,249.046,154.024Z" transform="translate(-240.533 -143.875)" fill="#09c"/>
    <path id="Tracé_88" data-name="Tracé 88" d="M150.757,436.379l-6,6a1.52,1.52,0,1,0,2.149,2.149l6-6Z" transform="translate(-144.311 -418.357)" fill="#09c"/>
  </g>
  <path id="Tracé_89" data-name="Tracé 89" d="M403.434,202.379a6.622,6.622,0,0,0-4.713-1.952.844.844,0,0,0,0,1.689,4.976,4.976,0,0,1,4.977,4.977.844.844,0,1,0,1.689,0A6.622,6.622,0,0,0,403.434,202.379Z" transform="translate(-382.254 -196.943)" fill="#09c"/>
</svg>
