<svg xmlns="http://www.w3.org/2000/svg" width="184.468" height="235.081" viewBox="0 0 184.468 235.081">
  <g id="RComSante-ADN" transform="translate(-240.479 -101.198)">
    <g id="Groupe_347" data-name="Groupe 347" transform="translate(240.479 175.341)">
      <path id="Tracé_481" data-name="Tracé 481" d="M512.171,503.518,474.24,471.025l-1.492,1.757,37.931,32.493Z" transform="translate(-408.591 -443.013)" fill="#e34234"/>
      <path id="Tracé_482" data-name="Tracé 482" d="M260.779,759.705l42.506,35.917,1.491-1.757-42.506-35.917Z" transform="translate(-255.172 -650.682)" fill="#e34234"/>
      <circle id="Ellipse_120" data-name="Ellipse 120" cx="8.054" cy="8.054" r="8.054" transform="translate(81.473 64.431)" fill="#e34234"/>
      <circle id="Ellipse_121" data-name="Ellipse 121" cx="7.786" cy="7.786" r="7.786" transform="matrix(0.647, -0.762, 0.762, 0.647, 0, 112.964)" fill="#e34234"/>
      <circle id="Ellipse_122" data-name="Ellipse 122" cx="5.753" cy="5.753" r="5.753" transform="matrix(0.805, -0.593, 0.593, 0.805, 90.095, 6.826)" fill="#e34234"/>
      <circle id="Ellipse_123" data-name="Ellipse 123" cx="5.648" cy="5.648" r="5.648" transform="translate(150.057 2.237)" fill="#e34234"/>
      <circle id="Ellipse_124" data-name="Ellipse 124" cx="3.834" cy="3.834" r="3.834" transform="translate(136.1 9.721) rotate(-40.455)" fill="#e34234"/>
      <circle id="Ellipse_125" data-name="Ellipse 125" cx="11.123" cy="11.123" r="11.123" transform="translate(46.666 13.408) rotate(-4.672)" fill="#e34234"/>
      <circle id="Ellipse_126" data-name="Ellipse 126" cx="5.753" cy="5.753" r="5.753" transform="translate(44.928 60.23) rotate(-4.672)" fill="#e34234"/>
      <circle id="Ellipse_127" data-name="Ellipse 127" cx="5.753" cy="5.753" r="5.753" transform="matrix(0.647, -0.762, 0.762, 0.647, 53.948, 106.626)" fill="#e34234"/>
    </g>
    <g id="Groupe_348" data-name="Groupe 348" transform="translate(254.322 101.198)" opacity="0.8">
      <path id="Tracé_483" data-name="Tracé 483" d="M552.094,427.633l-33.023-33.314-1.654,1.605,33.023,33.314Z" transform="translate(-454.764 -313.352)" fill="#33bd94"/>
      <path id="Tracé_484" data-name="Tracé 484" d="M740.974,277.25l-20.709-40.139-1.866.919,20.709,40.139Z" transform="translate(-600.23 -199.569)" fill="#33bd94"/>
      <rect id="Rectangle_70" data-name="Rectangle 70" width="51.647" height="2.148" transform="matrix(-0.762, -0.647, 0.647, -0.762, 45.883, 201.171)" fill="#33bd94"/>
      <circle id="Ellipse_128" data-name="Ellipse 128" cx="8.821" cy="8.821" r="8.821" transform="translate(83.168 138.891) rotate(-36.39)" fill="#33bd94"/>
      <circle id="Ellipse_129" data-name="Ellipse 129" cx="6.493" cy="6.493" r="6.493" transform="matrix(0.647, -0.762, 0.762, 0.647, 0, 170.124)" fill="#33bd94"/>
      <circle id="Ellipse_130" data-name="Ellipse 130" cx="4.328" cy="4.328" r="4.328" transform="translate(20.695 161.439) rotate(-40.455)" fill="#33bd94"/>
      <circle id="Ellipse_131" data-name="Ellipse 131" cx="8.054" cy="8.054" r="8.054" transform="translate(56.281 76.312)" fill="#33bd94"/>
      <circle id="Ellipse_132" data-name="Ellipse 132" cx="5.753" cy="5.753" r="5.753" transform="translate(112.747 103.515) rotate(-4.672)" fill="#33bd94"/>
      <circle id="Ellipse_133" data-name="Ellipse 133" cx="11.123" cy="11.123" r="11.123" transform="matrix(0.816, -0.579, 0.579, 0.816, 120.598, 12.873)" fill="#33bd94"/>
      <circle id="Ellipse_134" data-name="Ellipse 134" cx="8.054" cy="8.054" r="8.054" transform="translate(112.621 33.143)" fill="#33bd94"/>
    </g>
    <g id="Groupe_349" data-name="Groupe 349" transform="translate(281.143 126.374)" opacity="0.9">
      <path id="Tracé_485" data-name="Tracé 485" d="M441.6,545.837,403.824,520.4l-1.345,1.872,37.776,25.437Z" transform="translate(-398.395 -429.783)" fill="#09c"/>
      <path id="Tracé_486" data-name="Tracé 486" d="M815.308,251.513,795.049,192.34l-2.182.743,20.259,59.172Z" transform="translate(-680.95 -192.34)" fill="#09c"/>
      <circle id="Ellipse_135" data-name="Ellipse 135" cx="8.054" cy="8.054" r="8.054" transform="translate(12.076 128.51)" fill="#09c"/>
      <circle id="Ellipse_136" data-name="Ellipse 136" cx="3.138" cy="3.138" r="3.138" transform="matrix(0.805, -0.593, 0.593, 0.805, 30.107, 128.261)" fill="#09c"/>
      <circle id="Ellipse_137" data-name="Ellipse 137" cx="8.054" cy="8.054" r="8.054" transform="translate(73.497 56.007)" fill="#09c"/>
      <circle id="Ellipse_138" data-name="Ellipse 138" cx="7.788" cy="7.788" r="7.788" transform="translate(122.96 52.353) rotate(-26.142)" fill="#09c"/>
      <circle id="Ellipse_139" data-name="Ellipse 139" cx="5.753" cy="5.753" r="5.753" transform="matrix(0.805, -0.593, 0.593, 0.805, 76.636, 39.222)" fill="#09c"/>
      <circle id="Ellipse_140" data-name="Ellipse 140" cx="8.054" cy="8.054" r="8.054" transform="translate(67.57 86.536)" fill="#09c"/>
      <circle id="Ellipse_141" data-name="Ellipse 141" cx="6.124" cy="6.124" r="6.124" transform="translate(0 94.669) rotate(-58.89)" fill="#09c"/>
      <circle id="Ellipse_142" data-name="Ellipse 142" cx="11.123" cy="11.123" r="11.123" transform="translate(6.123 187.66)" fill="#09c"/>
      <circle id="Ellipse_143" data-name="Ellipse 143" cx="8.054" cy="8.054" r="8.054" transform="translate(15.398 168.748)" fill="#09c"/>
    </g>
  </g>
</svg>
