<svg xmlns="http://www.w3.org/2000/svg" width="17.789" height="19.561" viewBox="0 0 17.789 19.561">
  <g id="RComSante-download-icon" transform="translate(-374.076 -39)">
    <path id="Tracé_527" data-name="Tracé 527" d="M387.708,53.8h0c.02.02.043.033.064.052a1.864,1.864,0,0,0,.195.156c.026.016.054.027.081.042a1.772,1.772,0,0,0,.209.108c.034.013.071.02.105.031a1.675,1.675,0,0,0,.2.058,1.368,1.368,0,0,0,.141.014,1.709,1.709,0,0,0,.175.016,1.683,1.683,0,0,0,.175-.016,1.372,1.372,0,0,0,.141-.014,1.558,1.558,0,0,0,.2-.058c.037-.011.074-.018.109-.032a1.632,1.632,0,0,0,.2-.105c.028-.015.059-.027.087-.046a1.75,1.75,0,0,0,.188-.151c.023-.02.048-.035.07-.056h0l5.576-5.577a1.676,1.676,0,0,0-2.37-2.369l-2.7,2.7V40.583h-.005a1.674,1.674,0,0,0-3.342,0h0v7.973l-2.7-2.7a1.676,1.676,0,1,0-2.37,2.369Z" transform="translate(-5.921)" fill="#e34234"/>
    <path id="Tracé_528" data-name="Tracé 528" d="M391.839,104.653a.917.917,0,0,0-1.833,0c0,.763.187,1.8-.345,2.419-.366.427-1.019.345-1.52.345H377.777a2.056,2.056,0,0,1-1.52-.345c-.567-.486-.345-1.759-.345-2.419a.917.917,0,0,0-1.833,0,7.3,7.3,0,0,0,.359,3.012,3.023,3.023,0,0,0,2.769,1.586h11.5a3.158,3.158,0,0,0,2.769-1.586A5.819,5.819,0,0,0,391.839,104.653Z" transform="translate(0 -50.69)" fill="#e34234"/>
  </g>
</svg>
