<svg id="RComSante-login-icon" xmlns="http://www.w3.org/2000/svg" width="24.359" height="33.145" viewBox="0 0 24.359 33.145">
  <g id="Groupe_98" data-name="Groupe 98" transform="translate(3.543 0)">
    <circle id="Ellipse_11" data-name="Ellipse 11" cx="5.647" cy="5.647" r="5.647" transform="translate(0 7.986) rotate(-45)" fill="#09c"/>
  </g>
  <g id="Groupe_99" data-name="Groupe 99" transform="translate(0 15.564)">
    <path id="Tracé_90" data-name="Tracé 90" d="M320.886,466.312a1.283,1.283,0,0,1,.169-.017l.1,0h.463a1.268,1.268,0,0,1,.251.025,4.828,4.828,0,0,1,.913.179,5.423,5.423,0,0,0-2.064-1.429c-2.568-1-4.394.122-6.868.145-2.474-.023-4.3-1.149-6.868-.145-2.778,1.086-3.735,3.98-4.418,6.7-1.761,7,6.449,6.883,10.978,6.883h1.219V474.66a2.4,2.4,0,0,1,1.132-2.025,7.377,7.377,0,0,1,1.94-4.823A4.66,4.66,0,0,1,320.886,466.312Z" transform="translate(-302.323 -464.649)" fill="#09c"/>
  </g>
  <g id="Groupe_100" data-name="Groupe 100" transform="translate(13.713 18.477)">
    <path id="Tracé_91" data-name="Tracé 91" d="M534.415,517.867a6.5,6.5,0,0,0-1.61-4.818,3.371,3.371,0,0,0-2.329-1.105v-.009h-.42l-.1,0v0a3.371,3.371,0,0,0-2.329,1.105,6.5,6.5,0,0,0-1.61,4.818,1.24,1.24,0,0,0-1.123,1.165v6.389a1.274,1.274,0,0,0,1.349,1.182h7.949a1.274,1.274,0,0,0,1.349-1.182v-6.389A1.24,1.24,0,0,0,534.415,517.867Zm-3.366,6.277h-1.667l.367-1.9a1,1,0,1,1,.933,0Zm2.106-6.293h-5.879a5.285,5.285,0,0,1,1.275-3.947,2.309,2.309,0,0,1,3.329,0A5.288,5.288,0,0,1,533.154,517.85Z" transform="translate(-524.892 -511.935)" fill="#09c"/>
  </g>
</svg>
