<svg xmlns="http://www.w3.org/2000/svg" width="26.045" height="18.984" viewBox="0 0 26.045 18.984">
  <path id="RComSante-quote-icon-right" d="M5.361,32.2a1.338,1.338,0,0,1-.967-.366,1.226,1.226,0,0,1-.381-.923,1.705,1.705,0,0,1,1.113-1.465,14.9,14.9,0,0,0,3.9-2.725q1.143-1.26,1.143-1.846,0-.557-.879-.674l-.352-.029-.469-.059a4.583,4.583,0,0,1-3.076-1.743,5.646,5.646,0,0,1-1.172-3.618,5.4,5.4,0,0,1,1.465-3.75,5.5,5.5,0,0,1,4.248-1.787,5.531,5.531,0,0,1,4.277,1.963,7.086,7.086,0,0,1,1.846,5.01,10.2,10.2,0,0,1-1.846,5.522A16.166,16.166,0,0,1,9.4,30.5,8.312,8.312,0,0,1,5.361,32.2Zm14,0a1.338,1.338,0,0,1-.967-.366,1.226,1.226,0,0,1-.381-.923,1.705,1.705,0,0,1,1.113-1.465,14.9,14.9,0,0,0,3.9-2.725q1.143-1.26,1.143-1.846,0-.557-.879-.674l-.352-.029-.469-.059a4.583,4.583,0,0,1-3.076-1.743,5.646,5.646,0,0,1-1.172-3.618,5.4,5.4,0,0,1,1.465-3.75,5.786,5.786,0,0,1,8.525.176,7.086,7.086,0,0,1,1.846,5.01,10.2,10.2,0,0,1-1.846,5.522,16.166,16.166,0,0,1-4.8,4.79A8.312,8.312,0,0,1,19.365,32.2Z" transform="translate(-4.014 -13.219)" fill="#d7c57c"/>
</svg>
