<svg xmlns="http://www.w3.org/2000/svg" width="205.914" height="83.015" viewBox="0 0 205.914 83.015">
  <g id="RComSante-logo" transform="translate(-22.128 -20.635)">
    <g id="Groupe_115" data-name="Groupe 115" transform="translate(86.974 61.93)">
      <path id="Tracé_139" data-name="Tracé 139" d="M238.42,185.631c-.117.039-.272.082-.466.131a2.665,2.665,0,0,1-.642.073q-1.283,0-1.283-1.079V169.244a1,1,0,0,1,.233-.714,1.611,1.611,0,0,1,.729-.394,10.441,10.441,0,0,1,2.085-.379q1.239-.116,2.406-.117,3.674,0,5.467,1.473a5.108,5.108,0,0,1,1.793,4.184,5.451,5.451,0,0,1-1.035,3.382,5.67,5.67,0,0,1-3.134,1.954l1.458,1.866q.728.933,1.385,1.764t1.166,1.5q.51.671.8,1.05a1.32,1.32,0,0,1-.51.787,1.336,1.336,0,0,1-.8.292,1.354,1.354,0,0,1-.817-.233,3.108,3.108,0,0,1-.67-.729l-4.257-5.948H238.42ZM241.744,177a5.463,5.463,0,0,0,3.383-.933,3.265,3.265,0,0,0,1.225-2.77,3.167,3.167,0,0,0-1.283-2.755,6.254,6.254,0,0,0-3.674-.919q-.787,0-1.589.073t-1.414.189V177Z" transform="translate(-236.029 -165.657)" fill="#4d4d4d"/>
      <path id="Tracé_140" data-name="Tracé 140" d="M305.311,169.771a1.044,1.044,0,0,1-.248.7,1.631,1.631,0,0,1-.568.437,11.673,11.673,0,0,0-1.779-.991,7.283,7.283,0,0,0-5.132,0,5.6,5.6,0,0,0-1.983,1.37,6.36,6.36,0,0,0-1.327,2.274,9.493,9.493,0,0,0-.481,3.149,9.589,9.589,0,0,0,.466,3.149,6.338,6.338,0,0,0,1.3,2.245,5.246,5.246,0,0,0,2,1.356,7.12,7.12,0,0,0,2.6.452,7.478,7.478,0,0,0,2.639-.423,7.265,7.265,0,0,0,1.881-1.006,1.462,1.462,0,0,1,.554.423,1.064,1.064,0,0,1,.262.714,1.382,1.382,0,0,1-.7,1.108,6.808,6.808,0,0,1-1.837.831,10.167,10.167,0,0,1-2.974.365,9.751,9.751,0,0,1-3.411-.583,7.473,7.473,0,0,1-2.726-1.735,8.207,8.207,0,0,1-1.823-2.872,12.322,12.322,0,0,1,.015-8.062,8.4,8.4,0,0,1,1.852-2.9,7.549,7.549,0,0,1,2.726-1.75,9.287,9.287,0,0,1,3.28-.583,11.105,11.105,0,0,1,2.2.2,7.66,7.66,0,0,1,1.72.539,3.581,3.581,0,0,1,1.108.758A1.244,1.244,0,0,1,305.311,169.771Z" transform="translate(-275.366 -165.514)" fill="#4d4d4d"/>
      <path id="Tracé_141" data-name="Tracé 141" d="M360.938,189.291a8.752,8.752,0,0,1-.467,2.945,6.464,6.464,0,0,1-1.327,2.245,5.705,5.705,0,0,1-2.085,1.429,7.826,7.826,0,0,1-5.482,0,5.839,5.839,0,0,1-2.1-1.429,6.338,6.338,0,0,1-1.341-2.245,8.746,8.746,0,0,1-.467-2.945,8.5,8.5,0,0,1,.481-2.945,6.519,6.519,0,0,1,1.356-2.245,5.852,5.852,0,0,1,2.1-1.429,7.666,7.666,0,0,1,5.424,0,5.71,5.71,0,0,1,2.085,1.429,6.644,6.644,0,0,1,1.341,2.245A8.51,8.51,0,0,1,360.938,189.291Zm-6.619-5.19a3.837,3.837,0,0,0-3.12,1.37,7.046,7.046,0,0,0-.015,7.654,3.846,3.846,0,0,0,3.135,1.356,3.785,3.785,0,0,0,3.12-1.371,7.1,7.1,0,0,0-.014-7.64A3.8,3.8,0,0,0,354.319,184.1Z" transform="translate(-315.422 -175.994)" fill="#4d4d4d"/>
      <path id="Tracé_142" data-name="Tracé 142" d="M422.387,184.771a3.34,3.34,0,0,0-2.187-.671,4.911,4.911,0,0,0-3.382,1.341,4.357,4.357,0,0,1,.175,1.254v9.272a3.6,3.6,0,0,1-.452.131,2.718,2.718,0,0,1-.627.073q-1.254,0-1.254-1.05v-8.252a2.563,2.563,0,0,0-.817-2.1,3.389,3.389,0,0,0-2.216-.671,5.3,5.3,0,0,0-1.764.291,6.633,6.633,0,0,0-1.414.671v10.905a3.714,3.714,0,0,1-.438.131,2.66,2.66,0,0,1-.641.073q-1.254,0-1.254-1.05v-9.943a1.8,1.8,0,0,1,.248-.977,2.9,2.9,0,0,1,.86-.8,8.24,8.24,0,0,1,2-.86,8.412,8.412,0,0,1,2.435-.364,7.1,7.1,0,0,1,2.537.423,3.879,3.879,0,0,1,1.691,1.152,6.394,6.394,0,0,1,1.895-1.123,6.983,6.983,0,0,1,2.6-.452,5.842,5.842,0,0,1,3.761,1.123,4.164,4.164,0,0,1,1.4,3.455v9.214a3.558,3.558,0,0,1-.452.131,2.718,2.718,0,0,1-.627.073q-1.254,0-1.254-1.05v-8.252A2.564,2.564,0,0,0,422.387,184.771Z" transform="translate(-356.984 -175.994)" fill="#4d4d4d"/>
      <path id="Tracé_143" data-name="Tracé 143" d="M491.78,183.942a4.343,4.343,0,0,0,2.959-.889,2.915,2.915,0,0,0,1.006-2.289,2.655,2.655,0,0,0-.773-1.983,5.857,5.857,0,0,0-2.435-1.254L490,176.769a6.7,6.7,0,0,1-2.93-1.633,3.968,3.968,0,0,1-1.065-2.916,4.591,4.591,0,0,1,.423-2,4.112,4.112,0,0,1,1.21-1.5,5.8,5.8,0,0,1,1.881-.948,8.4,8.4,0,0,1,2.464-.335,11.752,11.752,0,0,1,2.173.189,7.8,7.8,0,0,1,1.749.525,3.877,3.877,0,0,1,1.152.744,1.165,1.165,0,0,1,.2,1.545,1.517,1.517,0,0,1-.525.467,7.3,7.3,0,0,0-1.968-1.021,7.892,7.892,0,0,0-2.7-.437,4.423,4.423,0,0,0-2.7.729,2.4,2.4,0,0,0-.977,2.041,2.15,2.15,0,0,0,.7,1.662,5.9,5.9,0,0,0,2.333,1.108l1.779.525a9.083,9.083,0,0,1,3.63,1.881,4.331,4.331,0,0,1,1.327,3.368A4.686,4.686,0,0,1,496.5,184.5a7.034,7.034,0,0,1-4.723,1.429,11.7,11.7,0,0,1-2.435-.233,8.049,8.049,0,0,1-1.866-.612,4.061,4.061,0,0,1-1.2-.831,1.325,1.325,0,0,1-.423-.889,1.186,1.186,0,0,1,.306-.831,1.762,1.762,0,0,1,.714-.481,6.347,6.347,0,0,0,1.866,1.268,7.261,7.261,0,0,0,1.37.452A7.385,7.385,0,0,0,491.78,183.942Z" transform="translate(-413.694 -165.514)" fill="#4d4d4d"/>
      <path id="Tracé_144" data-name="Tracé 144" d="M544.268,182.176a6.465,6.465,0,0,1,4.024,1.137,4.226,4.226,0,0,1,1.487,3.586v6.911a1.63,1.63,0,0,1-.248.977,2.458,2.458,0,0,1-.743.627,7.6,7.6,0,0,1-1.852.714,10.318,10.318,0,0,1-2.639.306,7.186,7.186,0,0,1-4.243-1.079,3.6,3.6,0,0,1-1.5-3.12,3.452,3.452,0,0,1,1.254-2.9,6.794,6.794,0,0,1,3.528-1.21l4.141-.408V186.9a2.513,2.513,0,0,0-.875-2.128,3.788,3.788,0,0,0-2.362-.671,7.428,7.428,0,0,0-2.3.35,12.733,12.733,0,0,0-1.924.787,2.746,2.746,0,0,1-.423-.467.972.972,0,0,1-.19-.583,1.061,1.061,0,0,1,.2-.671,1.992,1.992,0,0,1,.642-.5,7.183,7.183,0,0,1,1.808-.627A10.565,10.565,0,0,1,544.268,182.176Zm.029,12.334a6.975,6.975,0,0,0,2.027-.248,4.7,4.7,0,0,0,1.152-.481v-4.228l-3.615.379a4.544,4.544,0,0,0-2.245.685,1.852,1.852,0,0,0-.729,1.589,1.962,1.962,0,0,0,.846,1.706A4.463,4.463,0,0,0,544.3,194.51Z" transform="translate(-451.165 -175.994)" fill="#4d4d4d"/>
      <path id="Tracé_145" data-name="Tracé 145" d="M600.564,184.859a3.751,3.751,0,0,0-2.464-.758,6.754,6.754,0,0,0-2.07.291,7.693,7.693,0,0,0-1.545.671v10.905a3.713,3.713,0,0,1-.438.131,2.66,2.66,0,0,1-.642.073q-1.253,0-1.254-1.05v-9.943a1.856,1.856,0,0,1,.248-1.006,2.625,2.625,0,0,1,.86-.773,8.708,8.708,0,0,1,2.012-.845,9.773,9.773,0,0,1,2.828-.379,6.632,6.632,0,0,1,4.184,1.2,4.478,4.478,0,0,1,1.531,3.761v8.835a3.547,3.547,0,0,1-.452.131,2.719,2.719,0,0,1-.627.073q-1.254,0-1.254-1.05V187.25A2.925,2.925,0,0,0,600.564,184.859Z" transform="translate(-489.281 -175.994)" fill="#4d4d4d"/>
      <path id="Tracé_146" data-name="Tracé 146" d="M652.349,187.217a5.578,5.578,0,0,1-3.31-.9,3.432,3.432,0,0,1-1.268-3v-13.85a3.526,3.526,0,0,1,.452-.131,2.83,2.83,0,0,1,.656-.073q1.225,0,1.225,1.05v3.353h4.782a2.25,2.25,0,0,1,.175.394,1.616,1.616,0,0,1,.087.54q0,.991-.875.991H650.1v7.581a1.908,1.908,0,0,0,.656,1.647,3.085,3.085,0,0,0,1.851.481,4.072,4.072,0,0,0,1.108-.175,4.644,4.644,0,0,0,1.021-.408,1.964,1.964,0,0,1,.321.437,1.24,1.24,0,0,1,.146.612,1.2,1.2,0,0,1-.758,1.049A4.473,4.473,0,0,1,652.349,187.217Z" transform="translate(-528.834 -166.806)" fill="#4d4d4d"/>
      <path id="Tracé_147" data-name="Tracé 147" d="M683.5,175.443q.788,3.82,5.015,3.82a5.766,5.766,0,0,0,2.216-.408,6.485,6.485,0,0,0,1.575-.875,1.241,1.241,0,0,1,.7,1.108,1.133,1.133,0,0,1-.365.787,3.27,3.27,0,0,1-.991.671,6.746,6.746,0,0,1-1.458.467,8.7,8.7,0,0,1-1.793.175,7.53,7.53,0,0,1-5.351-1.837,6.983,6.983,0,0,1-1.968-5.365,8.479,8.479,0,0,1,.481-2.96,6.348,6.348,0,0,1,1.341-2.2,5.776,5.776,0,0,1,2.056-1.385,6.886,6.886,0,0,1,2.595-.481,6.533,6.533,0,0,1,2.42.437,5.549,5.549,0,0,1,1.91,1.239,5.769,5.769,0,0,1,1.254,1.9,6.245,6.245,0,0,1,.452,2.406,1.226,1.226,0,0,1-.292.919,1.366,1.366,0,0,1-.816.335Zm4.024-6.59a3.872,3.872,0,0,0-2.945,1.239,5.177,5.177,0,0,0-1.225,3.543l8.019-1.108a4.285,4.285,0,0,0-1.123-2.639A3.569,3.569,0,0,0,687.525,168.853ZM690,160.776a1.667,1.667,0,0,1,1.035.365.971.971,0,0,1,.394.744,1.113,1.113,0,0,1-.175.656,4.378,4.378,0,0,1-.583.627l-2.654,2.6a1.366,1.366,0,0,1-.933-.306.9.9,0,0,1-.35-.685.738.738,0,0,1,.146-.437c.1-.136.194-.263.292-.379Z" transform="translate(-552.522 -160.776)" fill="#4d4d4d"/>
    </g>
    <g id="Groupe_116" data-name="Groupe 116" transform="translate(25.176 91.656)">
      <path id="Tracé_148" data-name="Tracé 148" d="M40.335,276.03a1.014,1.014,0,0,1-.536.127,1.262,1.262,0,0,1-1.058-.553l-1.909-2.636a4.007,4.007,0,0,0-1-1.018,2.689,2.689,0,0,0-1.144-.387v-.584h1.231a2.438,2.438,0,0,0,1.815-.7,2.52,2.52,0,0,0,.695-1.854,2.605,2.605,0,0,0-.663-1.839,2.179,2.179,0,0,0-1.673-.718H33.343V276.03H32.68v-10.8h3.472a2.827,2.827,0,0,1,2.557,1.539,3.45,3.45,0,0,1,.379,1.634,3.091,3.091,0,0,1-.679,2.076,2.505,2.505,0,0,1-1.815.876q-.538.032-.837.032a2,2,0,0,1,.615.174,1.444,1.444,0,0,1,.426.394q.505.663,1.262,1.681t1.2,1.634a.619.619,0,0,0,.521.284.658.658,0,0,0,.284-.047Z" transform="translate(-32.68 -264.367)" fill="#4d4d4d"/>
      <path id="Tracé_149" data-name="Tracé 149" d="M61.674,272.4a2.4,2.4,0,0,0,2.312,1.05,3.97,3.97,0,0,0,1.215-.182,7.182,7.182,0,0,0,1.278-.576l.3.489a5.247,5.247,0,0,1-2.888.868,3.2,3.2,0,0,1-2.549-1.042,4.1,4.1,0,0,1-.908-2.793,5.522,5.522,0,0,1,.426-2.225,3.51,3.51,0,0,1,1.207-1.523,3.133,3.133,0,0,1,1.838-.544,3.188,3.188,0,0,1,1.634.418,2.949,2.949,0,0,1,1.12,1.152,3.439,3.439,0,0,1,.4,1.681q0,.284-.063,1.01H61.1A4.537,4.537,0,0,0,61.674,272.4Zm4.7-2.817a2.568,2.568,0,0,0,.031-.442,2.753,2.753,0,0,0-.339-1.365,2.5,2.5,0,0,0-.907-.947,2.388,2.388,0,0,0-1.247-.339,2.42,2.42,0,0,0-1.87.852,3.838,3.838,0,0,0-.907,2.241Zm-2.731-4.924,1.815-2.431.568.458-2.084,2.257Z" transform="translate(-52.418 -262.23)" fill="#4d4d4d"/>
      <path id="Tracé_150" data-name="Tracé 150" d="M89.041,282.564a4.482,4.482,0,0,1-1.341-.884l.379-.458a3.664,3.664,0,0,0,2.478,1.026,2.331,2.331,0,0,0,1.484-.458,1.482,1.482,0,0,0,.584-1.231,1.249,1.249,0,0,0-.252-.805,2.064,2.064,0,0,0-.687-.537q-.435-.221-1.318-.584a13.655,13.655,0,0,1-1.263-.568,2.138,2.138,0,0,1-.718-.608,1.5,1.5,0,0,1-.276-.923,1.745,1.745,0,0,1,.655-1.42,2.668,2.668,0,0,1,1.744-.537,3.431,3.431,0,0,1,1.878.552l-.315.505a3.013,3.013,0,0,0-1.547-.458,1.971,1.971,0,0,0-1.255.379,1.19,1.19,0,0,0-.481.979.873.873,0,0,0,.181.56,1.943,1.943,0,0,0,.608.458q.426.229,1.341.623a14.1,14.1,0,0,1,1.405.679,2.212,2.212,0,0,1,.718.647,1.7,1.7,0,0,1,.26.979,2.143,2.143,0,0,1-.758,1.728,3,3,0,0,1-2,.639A3.925,3.925,0,0,1,89.041,282.564Z" transform="translate(-71.807 -271.011)" fill="#4d4d4d"/>
      <path id="Tracé_151" data-name="Tracé 151" d="M113.361,281.494a2.4,2.4,0,0,0,2.313,1.05,3.966,3.966,0,0,0,1.215-.182,7.172,7.172,0,0,0,1.279-.576l.3.489a5.25,5.25,0,0,1-2.889.868,3.2,3.2,0,0,1-2.549-1.042,4.1,4.1,0,0,1-.907-2.793,5.527,5.527,0,0,1,.426-2.225,3.512,3.512,0,0,1,1.207-1.523,3.134,3.134,0,0,1,1.839-.544,3.184,3.184,0,0,1,1.634.418,2.947,2.947,0,0,1,1.121,1.152,3.439,3.439,0,0,1,.4,1.681q0,.284-.064,1.01h-5.9A4.547,4.547,0,0,0,113.361,281.494Zm4.7-2.817a2.54,2.54,0,0,0,.031-.442,2.756,2.756,0,0,0-.339-1.365,2.494,2.494,0,0,0-.908-.947,2.386,2.386,0,0,0-1.247-.339,2.419,2.419,0,0,0-1.87.852,3.841,3.841,0,0,0-.908,2.241Z" transform="translate(-89.174 -271.322)" fill="#4d4d4d"/>
      <path id="Tracé_152" data-name="Tracé 152" d="M145.215,282.278a6.224,6.224,0,0,1-.324-.876,2.4,2.4,0,0,1-2.526,1.531,2.806,2.806,0,0,1-1.957-.631,2.268,2.268,0,0,1-.694-1.768,2.127,2.127,0,0,1,.837-1.831,4.124,4.124,0,0,1,2.463-.616h1.846v-.694a2.291,2.291,0,0,0-.426-1.539,1.794,1.794,0,0,0-1.4-.481,4.4,4.4,0,0,0-1.318.205,3.826,3.826,0,0,0-1.176.6l-.316-.489a4.381,4.381,0,0,1,2.825-.947,2.166,2.166,0,0,1,2.478,2.478v3.346a2.838,2.838,0,0,0,.584,1.91l-.395.395A1.8,1.8,0,0,1,145.215,282.278Zm-1.034-.584a2.183,2.183,0,0,0,.679-1.665v-1.342h-1.768a3.746,3.746,0,0,0-2.076.442,1.57,1.57,0,0,0-.639,1.389,1.69,1.69,0,0,0,.537,1.35,2.163,2.163,0,0,0,1.468.466A2.518,2.518,0,0,0,144.181,281.694Z" transform="translate(-108.796 -271.128)" fill="#4d4d4d"/>
      <path id="Tracé_153" data-name="Tracé 153" d="M168.4,280.812v-5.524h.663l.016,5.35a2.163,2.163,0,0,0,.489,1.523,1.9,1.9,0,0,0,1.468.529,2.509,2.509,0,0,0,1.484-.434,5.517,5.517,0,0,0,1.247-1.318v-5.65h.663v5.635a2.825,2.825,0,0,0,.6,1.91l-.41.395a1.868,1.868,0,0,1-.6-.8,2.468,2.468,0,0,1-.205-.939,3.85,3.85,0,0,1-1.255,1.4,2.993,2.993,0,0,1-1.57.4Q168.4,283.29,168.4,280.812Z" transform="translate(-128.572 -271.516)" fill="#4d4d4d"/>
      <path id="Tracé_154" data-name="Tracé 154" d="M214.807,274.617a5.309,5.309,0,0,1-1.9-2.044,5.916,5.916,0,0,1-.687-2.833,6.137,6.137,0,0,1,.718-2.928,5.664,5.664,0,0,1,1.958-2.147,4.93,4.93,0,0,1,2.722-.8,5.322,5.322,0,0,1,2.415.544,2.217,2.217,0,0,1,1.215,1.933H220.6a1.678,1.678,0,0,0-1.081-1.452,5.143,5.143,0,0,0-1.981-.395,4.028,4.028,0,0,0-2.336.742,5.225,5.225,0,0,0-1.7,1.965,5.6,5.6,0,0,0-.624,2.58,5.208,5.208,0,0,0,.6,2.454,4.691,4.691,0,0,0,1.673,1.823,4.422,4.422,0,0,0,2.415.679,4.7,4.7,0,0,0,2.171-.521,4.519,4.519,0,0,0,1.649-1.4l.537.363A4.978,4.978,0,0,1,220,274.822a5.591,5.591,0,0,1-2.446.552A5.085,5.085,0,0,1,214.807,274.617Z" transform="translate(-159.52 -263.396)" fill="#4d4d4d"/>
      <path id="Tracé_155" data-name="Tracé 155" d="M251.743,282.622A3.492,3.492,0,0,1,250.4,281.2a4.442,4.442,0,0,1-.481-2.1,4.527,4.527,0,0,1,.481-2.123,3.571,3.571,0,0,1,1.35-1.444,3.789,3.789,0,0,1,1.989-.521,3.833,3.833,0,0,1,1.988.513,3.522,3.522,0,0,1,1.35,1.436,4.888,4.888,0,0,1,0,4.23,3.47,3.47,0,0,1-1.35,1.428,3.911,3.911,0,0,1-2,.5A3.837,3.837,0,0,1,251.743,282.622Zm3.646-.537a2.964,2.964,0,0,0,1.113-1.239,4.057,4.057,0,0,0,.394-1.823,3.874,3.874,0,0,0-.394-1.783,2.892,2.892,0,0,0-1.113-1.2,3.172,3.172,0,0,0-1.649-.426,3.125,3.125,0,0,0-1.649.434,2.916,2.916,0,0,0-1.113,1.223,4,4,0,0,0-.395,1.815,3.915,3.915,0,0,0,.395,1.791,2.923,2.923,0,0,0,1.113,1.215,3.123,3.123,0,0,0,1.649.434A3.083,3.083,0,0,0,255.389,282.086Z" transform="translate(-186.167 -271.322)" fill="#4d4d4d"/>
      <path id="Tracé_156" data-name="Tracé 156" d="M281.117,275.488l.395-.395a2.006,2.006,0,0,1,.544.679,3.235,3.235,0,0,1,.261.931,2.722,2.722,0,0,1,2.573-1.689,2.33,2.33,0,0,1,1.42.418,2.252,2.252,0,0,1,.805,1.239,3.071,3.071,0,0,1,1.1-1.239,2.8,2.8,0,0,1,1.5-.418,2.289,2.289,0,0,1,1.7.655,2.431,2.431,0,0,1,.631,1.823l-.063,5.477h-.631l.031-5.3a2.383,2.383,0,0,0-.426-1.515,1.591,1.591,0,0,0-1.326-.537,2.67,2.67,0,0,0-2.43,1.689v5.666h-.663v-5.3a2.363,2.363,0,0,0-.434-1.5,1.518,1.518,0,0,0-1.27-.553,2.519,2.519,0,0,0-1.492.489,2.706,2.706,0,0,0-.97,1.184v5.682h-.663V277.4A2.863,2.863,0,0,0,281.117,275.488Z" transform="translate(-208.188 -271.322)" fill="#4d4d4d"/>
      <path id="Tracé_157" data-name="Tracé 157" d="M325.811,275.488l.395-.395a2,2,0,0,1,.545.679,3.242,3.242,0,0,1,.261.931,2.722,2.722,0,0,1,2.573-1.689,2.331,2.331,0,0,1,1.42.418,2.251,2.251,0,0,1,.805,1.239,3.071,3.071,0,0,1,1.1-1.239,2.8,2.8,0,0,1,1.5-.418,2.29,2.29,0,0,1,1.7.655,2.431,2.431,0,0,1,.631,1.823l-.063,5.477h-.631l.032-5.3a2.381,2.381,0,0,0-.426-1.515,1.591,1.591,0,0,0-1.326-.537,2.67,2.67,0,0,0-2.43,1.689v5.666h-.663v-5.3a2.364,2.364,0,0,0-.434-1.5,1.519,1.519,0,0,0-1.27-.553,2.519,2.519,0,0,0-1.492.489,2.711,2.711,0,0,0-.971,1.184v5.682h-.663V277.4A2.864,2.864,0,0,0,325.811,275.488Z" transform="translate(-239.762 -271.322)" fill="#4d4d4d"/>
      <path id="Tracé_158" data-name="Tracé 158" d="M371.761,280.812v-5.524h.663l.016,5.35a2.16,2.16,0,0,0,.489,1.523,1.9,1.9,0,0,0,1.468.529,2.507,2.507,0,0,0,1.483-.434,5.512,5.512,0,0,0,1.247-1.318v-5.65h.663v5.635a2.825,2.825,0,0,0,.6,1.91l-.41.395a1.873,1.873,0,0,1-.6-.8,2.462,2.462,0,0,1-.205-.939,3.847,3.847,0,0,1-1.255,1.4,3,3,0,0,1-1.571.4Q371.761,283.29,371.761,280.812Z" transform="translate(-272.259 -271.516)" fill="#4d4d4d"/>
      <path id="Tracé_159" data-name="Tracé 159" d="M399.736,275.488l.395-.395a2.159,2.159,0,0,1,.8,1.657,3.93,3.93,0,0,1,1.223-1.318,3.092,3.092,0,0,1,1.666-.418,2.58,2.58,0,0,1,1.862.623,2.416,2.416,0,0,1,.631,1.854l-.047,5.477h-.631l.016-5.3q0-2.052-1.91-2.052a2.615,2.615,0,0,0-1.491.418,5.143,5.143,0,0,0-1.255,1.3v5.634h-.663V277.4A2.864,2.864,0,0,0,399.736,275.488Z" transform="translate(-292.025 -271.322)" fill="#4d4d4d"/>
      <path id="Tracé_160" data-name="Tracé 160" d="M430.546,268.235a.568.568,0,0,1,.41-.978.583.583,0,0,1,.418.158.591.591,0,0,1,0,.821.583.583,0,0,1-.418.158A.556.556,0,0,1,430.546,268.235Zm.063,1.341h.711v7.891h-.711Z" transform="translate(-313.733 -265.805)" fill="#4d4d4d"/>
      <path id="Tracé_161" data-name="Tracé 161" d="M441.778,281.852a4.084,4.084,0,0,1-.955-2.88,5.109,5.109,0,0,1,.458-2.233,3.408,3.408,0,0,1,1.31-1.475,3.706,3.706,0,0,1,1.973-.521,3.058,3.058,0,0,1,2.178.868l-.426.426a2.45,2.45,0,0,0-.805-.529,2.589,2.589,0,0,0-.947-.166,2.834,2.834,0,0,0-1.6.466,3.058,3.058,0,0,0-1.089,1.3,4.5,4.5,0,0,0-.387,1.91,3.375,3.375,0,0,0,.813,2.391,2.876,2.876,0,0,0,2.217.876,4.151,4.151,0,0,0,1.192-.181,6.713,6.713,0,0,0,1.318-.576l.3.489a5.393,5.393,0,0,1-1.389.639,5.177,5.177,0,0,1-1.5.229A3.439,3.439,0,0,1,441.778,281.852Z" transform="translate(-321.056 -271.128)" fill="#4d4d4d"/>
      <path id="Tracé_162" data-name="Tracé 162" d="M472.168,282.278a6.2,6.2,0,0,1-.323-.876,2.4,2.4,0,0,1-2.525,1.531,2.807,2.807,0,0,1-1.957-.631,2.266,2.266,0,0,1-.694-1.768,2.127,2.127,0,0,1,.836-1.831,4.126,4.126,0,0,1,2.463-.616h1.846v-.694a2.289,2.289,0,0,0-.426-1.539,1.793,1.793,0,0,0-1.4-.481,4.405,4.405,0,0,0-1.318.205,3.828,3.828,0,0,0-1.175.6l-.316-.489a4.384,4.384,0,0,1,2.826-.947,2.166,2.166,0,0,1,2.478,2.478v3.346a2.84,2.84,0,0,0,.584,1.91l-.394.395A1.8,1.8,0,0,1,472.168,282.278Zm-1.034-.584a2.184,2.184,0,0,0,.679-1.665v-1.342h-1.767a3.745,3.745,0,0,0-2.076.442,1.57,1.57,0,0,0-.64,1.389,1.689,1.689,0,0,0,.537,1.35,2.163,2.163,0,0,0,1.468.466A2.518,2.518,0,0,0,471.134,281.694Z" transform="translate(-339.318 -271.128)" fill="#4d4d4d"/>
      <path id="Tracé_163" data-name="Tracé 163" d="M496.045,278.013a2.676,2.676,0,0,1-.529-1.823v-7.623h.663v2.02h2.542v.631h-2.542v4.972a1.833,1.833,0,0,0,.45,1.413,1.506,1.506,0,0,0,1.034.4,2.041,2.041,0,0,0,.978-.237l.331.552a2.512,2.512,0,0,1-1.294.284A2.083,2.083,0,0,1,496.045,278.013Z" transform="translate(-359.733 -266.736)" fill="#4d4d4d"/>
      <path id="Tracé_164" data-name="Tracé 164" d="M512.94,268.235a.568.568,0,0,1,.411-.978.582.582,0,0,1,.418.158.59.59,0,0,1,0,.821.582.582,0,0,1-.418.158A.555.555,0,0,1,512.94,268.235Zm.063,1.341h.71v7.891H513Z" transform="translate(-371.959 -265.805)" fill="#4d4d4d"/>
      <path id="Tracé_165" data-name="Tracé 165" d="M524.931,282.622a3.492,3.492,0,0,1-1.341-1.421,4.439,4.439,0,0,1-.482-2.1,4.524,4.524,0,0,1,.482-2.123,3.57,3.57,0,0,1,1.349-1.444,3.791,3.791,0,0,1,1.989-.521,3.834,3.834,0,0,1,1.989.513,3.524,3.524,0,0,1,1.349,1.436,4.887,4.887,0,0,1,0,4.23,3.472,3.472,0,0,1-1.349,1.428,3.912,3.912,0,0,1-2,.5A3.837,3.837,0,0,1,524.931,282.622Zm3.646-.537a2.964,2.964,0,0,0,1.113-1.239,4.057,4.057,0,0,0,.394-1.823,3.874,3.874,0,0,0-.394-1.783,2.892,2.892,0,0,0-1.113-1.2,3.173,3.173,0,0,0-1.649-.426,3.125,3.125,0,0,0-1.649.434,2.918,2.918,0,0,0-1.113,1.223,4.012,4.012,0,0,0-.394,1.815,3.923,3.923,0,0,0,.394,1.791,2.925,2.925,0,0,0,1.113,1.215,3.123,3.123,0,0,0,1.649.434A3.085,3.085,0,0,0,528.577,282.086Z" transform="translate(-379.182 -271.322)" fill="#4d4d4d"/>
      <path id="Tracé_166" data-name="Tracé 166" d="M554.306,275.488l.395-.395a2.159,2.159,0,0,1,.805,1.657,3.933,3.933,0,0,1,1.223-1.318,3.093,3.093,0,0,1,1.666-.418,2.58,2.58,0,0,1,1.862.623,2.417,2.417,0,0,1,.631,1.854l-.047,5.477h-.631l.016-5.3q0-2.052-1.91-2.052a2.614,2.614,0,0,0-1.491.418,5.142,5.142,0,0,0-1.255,1.3v5.634h-.663V277.4A2.864,2.864,0,0,0,554.306,275.488Z" transform="translate(-401.237 -271.322)" fill="#4d4d4d"/>
      <path id="Tracé_167" data-name="Tracé 167" d="M600.21,275.425a4.243,4.243,0,0,1-1.381-.884,2.985,2.985,0,0,1-.813-1.294l.616-.237a2.956,2.956,0,0,0,1.247,1.531,3.464,3.464,0,0,0,1.878.568,2.963,2.963,0,0,0,1.413-.339,2.593,2.593,0,0,0,1.01-.939,2.5,2.5,0,0,0,.371-1.342,1.764,1.764,0,0,0-.521-1.286,8.568,8.568,0,0,0-1.7-1.223l-.821-.458a15.439,15.439,0,0,1-1.349-.781,2.8,2.8,0,0,1-.781-.773,1.932,1.932,0,0,1-.3-1.1,2.343,2.343,0,0,1,.379-1.318,2.458,2.458,0,0,1,1.033-.884,3.353,3.353,0,0,1,1.445-.308,2.852,2.852,0,0,1,1.673.473,1.5,1.5,0,0,1,.694,1.247l-.694-.032a.954.954,0,0,0-.576-.789,2.5,2.5,0,0,0-1.144-.268,2.334,2.334,0,0,0-1.058.245,2.083,2.083,0,0,0-.789.671,1.559,1.559,0,0,0-.3.915,1.54,1.54,0,0,0,.576,1.239,8.244,8.244,0,0,0,1.586.986,5.457,5.457,0,0,1,.631.331,9.937,9.937,0,0,1,2.067,1.539,2.242,2.242,0,0,1,.647,1.586,3.035,3.035,0,0,1-.481,1.689,3.232,3.232,0,0,1-1.279,1.144,3.777,3.777,0,0,1-1.728.4A4.15,4.15,0,0,1,600.21,275.425Z" transform="translate(-431.654 -263.745)" fill="#4d4d4d"/>
      <path id="Tracé_168" data-name="Tracé 168" d="M632.365,282.278a6.368,6.368,0,0,1-.323-.876,2.4,2.4,0,0,1-2.526,1.531,2.8,2.8,0,0,1-1.957-.631,2.267,2.267,0,0,1-.695-1.768,2.128,2.128,0,0,1,.837-1.831,4.123,4.123,0,0,1,2.462-.616h1.847v-.694a2.292,2.292,0,0,0-.426-1.539,1.8,1.8,0,0,0-1.4-.481,4.4,4.4,0,0,0-1.318.205,3.824,3.824,0,0,0-1.176.6l-.315-.489a4.38,4.38,0,0,1,2.825-.947,2.166,2.166,0,0,1,2.478,2.478v3.346a2.837,2.837,0,0,0,.584,1.91l-.395.395A1.811,1.811,0,0,1,632.365,282.278Zm-1.033-.584a2.183,2.183,0,0,0,.679-1.665v-1.342h-1.768a3.746,3.746,0,0,0-2.076.442,1.57,1.57,0,0,0-.639,1.389,1.691,1.691,0,0,0,.536,1.35,2.164,2.164,0,0,0,1.468.466A2.519,2.519,0,0,0,631.332,281.694Z" transform="translate(-452.169 -271.128)" fill="#4d4d4d"/>
      <path id="Tracé_169" data-name="Tracé 169" d="M653.747,275.488l.395-.395a2.16,2.16,0,0,1,.8,1.657,3.933,3.933,0,0,1,1.223-1.318,3.093,3.093,0,0,1,1.666-.418,2.58,2.58,0,0,1,1.862.623,2.416,2.416,0,0,1,.631,1.854l-.047,5.477h-.632l.016-5.3q0-2.052-1.91-2.052a2.614,2.614,0,0,0-1.491.418,5.143,5.143,0,0,0-1.255,1.3v5.634h-.663V277.4A2.864,2.864,0,0,0,653.747,275.488Z" transform="translate(-471.286 -271.322)" fill="#4d4d4d"/>
      <path id="Tracé_170" data-name="Tracé 170" d="M685.311,278.013a2.675,2.675,0,0,1-.529-1.823v-7.623h.663v2.02h2.541v.631h-2.541v4.972a1.833,1.833,0,0,0,.45,1.413,1.5,1.5,0,0,0,1.034.4,2.043,2.043,0,0,0,.979-.237l.332.552a2.511,2.511,0,0,1-1.294.284A2.081,2.081,0,0,1,685.311,278.013Z" transform="translate(-493.356 -266.736)" fill="#4d4d4d"/>
      <path id="Tracé_171" data-name="Tracé 171" d="M701.047,272.4a2.4,2.4,0,0,0,2.313,1.05,3.969,3.969,0,0,0,1.215-.182,7.181,7.181,0,0,0,1.279-.576l.3.489a5.249,5.249,0,0,1-2.889.868,3.2,3.2,0,0,1-2.549-1.042,4.1,4.1,0,0,1-.907-2.793,5.525,5.525,0,0,1,.426-2.225,3.51,3.51,0,0,1,1.207-1.523,3.133,3.133,0,0,1,1.839-.544,3.186,3.186,0,0,1,1.633.418,2.948,2.948,0,0,1,1.121,1.152,3.439,3.439,0,0,1,.4,1.681q0,.284-.063,1.01h-5.9A4.546,4.546,0,0,0,701.047,272.4Zm4.7-2.817a2.548,2.548,0,0,0,.032-.442,2.755,2.755,0,0,0-.339-1.365,2.493,2.493,0,0,0-.908-.947,2.387,2.387,0,0,0-1.247-.339,2.419,2.419,0,0,0-1.87.852,3.841,3.841,0,0,0-.908,2.241Zm-2.73-4.924,1.815-2.431.568.458-2.083,2.257Z" transform="translate(-504.042 -262.23)" fill="#4d4d4d"/>
    </g>
    <g id="Groupe_121" data-name="Groupe 121" transform="translate(22.128 20.635)">
      <g id="Groupe_117" data-name="Groupe 117" transform="translate(23.268 23.956)">
        <path id="Tracé_172" data-name="Tracé 172" d="M120.447,130.447h-15.91v-3.721h15.91c.232,0,5.809-.078,5.809-3.854,0-3.423-5.755-3.493-5.813-3.493h-7.725c-.5.006-5.165-.03-8-2.832a6.978,6.978,0,0,1-2.045-5.084c0-6.239,6.586-7.892,10.069-7.9h15.417v3.721H112.748c-.253,0-6.35.086-6.35,4.174a3.255,3.255,0,0,0,.935,2.433c1.455,1.448,4.334,1.762,5.351,1.762h7.763c3.3,0,9.53,1.508,9.53,7.214,0,3.136-1.792,5.531-5.046,6.743A14.294,14.294,0,0,1,120.447,130.447Z" transform="translate(-102.677 -103.569)" fill="#e34234"/>
      </g>
      <g id="Groupe_118" data-name="Groupe 118" transform="translate(0 0)">
        <circle id="Ellipse_13" data-name="Ellipse 13" cx="6.598" cy="6.598" r="6.598" fill="#33add6"/>
      </g>
      <path id="Tracé_173" data-name="Tracé 173" d="M77.244,152.355c-.4-1.408-.485-6.477-.445-9.341v-.053c-.012-.887-.013-1.984,0-3.12a7.892,7.892,0,0,1-3.713-.66c-.034,1.723-.02,3.226-.012,3.806-.019,1.389-.075,8.06.587,10.385,1.607,5.652,6.956,11.693,17.145,11.693l16.3,0v-3.721l-16.3,0C82.692,161.344,78.48,156.7,77.244,152.355Z" transform="translate(-58.354 -104.938)" fill="#33bd94"/>
      <path id="Tracé_174" data-name="Tracé 174" d="M79.088,87.635c1.565-4.032,5.73-8,13.232-8l16.3,0V75.914l-16.3,0c-10.157,0-15.5,6-17.13,11.637A7.934,7.934,0,0,1,79.088,87.635Z" transform="translate(-59.862 -59.946)" fill="#33bd94"/>
      <g id="Groupe_119" data-name="Groupe 119" transform="translate(13.224 27.139)">
        <path id="Tracé_175" data-name="Tracé 175" d="M73.908,115.136a3.982,3.982,0,1,0,1.962,3.431A3.96,3.96,0,0,0,73.908,115.136Z" transform="translate(-67.906 -114.585)" fill="#e9685d"/>
        <path id="Tracé_176" data-name="Tracé 176" d="M76.858,122.35a36.063,36.063,0,0,1,.441-6.221c.094-.33.207-.661.335-.993a3.983,3.983,0,0,0-3.9-.08l-.016.055a33.7,33.7,0,0,0-.574,6.579,3.978,3.978,0,0,0,3.713.66Z" transform="translate(-71.632 -114.585)" fill="#c05b47"/>
      </g>
      <path id="Tracé_177" data-name="Tracé 177" d="M49.039,164.535v16.648H52.76v-19.4A42.35,42.35,0,0,1,49.039,164.535Z" transform="translate(-41.265 -121.008)" fill="#09c"/>
      <path id="Tracé_178" data-name="Tracé 178" d="M73.336,48.917l-19.368,0c-11.057,0-17.431,5.814-20.08,11.938a10.184,10.184,0,0,0-1.212-1.489,10,10,0,0,0-7.1-2.906l.183,3.654a6.322,6.322,0,0,1,4.314,1.826c1.457,1.472,2.25,3.745,2.369,6.774-.073,1.655-.1,3.322-.1,4.6a35.047,35.047,0,0,1,3.731,2.758v-.64c-.051-3.405.06-9.477.571-11.275,1.583-5.568,6.965-11.517,17.321-11.517l19.368,0Z" transform="translate(-24.583 -40.747)" fill="#09c"/>
      <g id="Groupe_120" data-name="Groupe 120" transform="translate(0.995 32.447)">
        <path id="Tracé_179" data-name="Tracé 179" d="M36.073,135.843a5.6,5.6,0,1,0,.706,2.722A5.61,5.61,0,0,0,36.073,135.843Z" transform="translate(-25.574 -132.962)" fill="#5ccaa9"/>
        <path id="Tracé_180" data-name="Tracé 180" d="M49,133.385c0,1.083.006,1.885.01,2.159v8.8a5.609,5.609,0,0,0,3.721-2.756v-5.444A5.61,5.61,0,0,0,49,133.385Z" transform="translate(-42.233 -133.263)" fill="#29b69f"/>
      </g>
    </g>
  </g>
</svg>
