<svg xmlns="http://www.w3.org/2000/svg" width="14.838" height="14.65" viewBox="0 0 14.838 14.65">
  <g id="RComSante-event-icon" transform="translate(-204 -39.085)">
    <path id="Tracé_183" data-name="Tracé 183" d="M209.754,48.5a1.691,1.691,0,0,1,1.454-1.069l1.28-.2.569-1.207a1.521,1.521,0,0,1,2.921-.02l.585,1.2.554.079,1.008-1.024c1.225-1.244.835-2.449-.87-2.692l-3.088-.439-1.4-2.865c-.773-1.582-2.008-1.573-2.759.019l-1.36,2.884-3.081.483c-1.7.267-2.075,1.477-.835,2.7l2.247,2.221-.506,3.163c-.279,1.747.725,2.486,2.243,1.652l2.409-1.324.142-.887-.946-.936A1.717,1.717,0,0,1,209.754,48.5Z" fill="#09c"/>
    <path id="Tracé_184" data-name="Tracé 184" d="M251.377,82.578l-1.693-.241-.767-1.57c-.424-.867-1.1-.862-1.512.011l-.746,1.581-1.689.265c-.933.146-1.138.81-.458,1.483l1.232,1.218-.277,1.734c-.153.958.4,1.363,1.23.905l1.507-.828,1.518.807c.838.446,1.383.032,1.218-.923l-.3-1.73,1.215-1.235C252.525,83.372,252.312,82.711,251.377,82.578Z" transform="translate(-33.641 -34.417)" fill="#09c"/>
  </g>
</svg>
