<svg xmlns="http://www.w3.org/2000/svg" width="15.307" height="15.307" viewBox="0 0 15.307 15.307">
  <path id="RComSante-linkedin-icon" d="M274.894,601.634v7.5h3.572v-10.2h-3.572Zm15.231.426c-.243-1.925-1.128-3.133-3.727-3.133a3.2,3.2,0,0,0-3,1.375h-.044v-1.375h-2.846v10.2h2.974v-5.058c0-1.335.255-2.623,1.9-2.623,1.626,0,1.758,1.523,1.758,2.711v4.971H290.2v-5.608a12.016,12.016,0,0,0-.076-1.463Zm-13.445-8.236a1.786,1.786,0,1,0,1.786,1.786,1.788,1.788,0,0,0-1.786-1.786Z" transform="translate(-274.894 -593.825)" fill="#e34234" fill-rule="evenodd"/>
</svg>
